<?xml version="1.0" encoding="iso-8859-1"?>
<!-- Generator: Adobe Illustrator 19.0.0, SVG Export Plug-In . SVG Version: 6.00 Build 0)  -->
<svg version="1.1" id="Layer_1" xmlns="http://www.w3.org/2000/svg" xmlns:xlink="http://www.w3.org/1999/xlink" x="0px" y="0px"
	 viewBox="0 0 512 512" style="enable-background:new 0 0 512 512;" xml:space="preserve">
<g>
	<path style="fill:#FBD971;" d="M512,256c0,141.383-114.617,256-256,256S0,397.383,0,256S114.617,0,256,0S512,114.617,512,256"/>
	<path style="fill:#C03A2B;" d="M161.174,417.666c-24.691,6.091-45.171-18.529-34.957-41.816
		c21.839-49.77,71.565-84.542,129.404-84.542c58.871,0,109.339,36.034,130.542,87.243c9.19,22.175-11.255,45.383-34.586,39.715
		C308.515,407.823,238.901,398.483,161.174,417.666"/>
	<path style="fill:#FB7B76;" d="M291.31,361.931c-13.586,0-25.935,5.155-35.31,13.568c-9.375-8.413-21.725-13.568-35.31-13.568
		c-29.255,0-52.966,23.711-52.966,52.966c0,0.433,0.053,0.847,0.062,1.28c70.788-16.11,134.312-9.004,176.402,0.38
		c0.018-0.556,0.088-1.095,0.088-1.66C344.276,385.642,320.565,361.931,291.31,361.931"/>
	<g>
		<path style="fill:#AF8066;" d="M185.379,158.897c0,24.373-11.855,44.138-26.483,44.138c-14.627,0-26.483-19.765-26.483-44.138
			s11.855-44.138,26.483-44.138C173.524,114.759,185.379,134.524,185.379,158.897"/>
		<path style="fill:#AF8066;" d="M379.586,158.897c0,24.373-11.855,44.138-26.483,44.138c-14.627,0-26.483-19.765-26.483-44.138
			s11.855-44.138,26.483-44.138C367.731,114.759,379.586,134.524,379.586,158.897"/>
	</g>
</g>
<g>
</g>
<g>
</g>
<g>
</g>
<g>
</g>
<g>
</g>
<g>
</g>
<g>
</g>
<g>
</g>
<g>
</g>
<g>
</g>
<g>
</g>
<g>
</g>
<g>
</g>
<g>
</g>
<g>
</g>
</svg>
